HIERARCHY
ROOT pelvis
{
    OFFSET 0.0 76.69164276123047 0.0
    CHANNELS 6 Xposition Yposition Zposition Zrotation Yrotation Xrotation

    JOINT left_hip
    {
        OFFSET -5.421833038330078 -4.185707092285156 3.364569664001465
        CHANNELS 3 Zrotation Yrotation Xrotation

        JOINT left_knee
        {
            OFFSET -2.380466938018799 -31.14776611328125 -27.844646453857422
            CHANNELS 3 Zrotation Yrotation Xrotation

            JOINT left_ankle
            {
                OFFSET 6.1509833335876465 -31.527803421020508 29.145278930664062
                CHANNELS 3 Zrotation Yrotation Xrotation

                JOINT left_foot
                {
                    OFFSET -6.790370941162109 -7.004793167114258 -9.95383071899414
                    CHANNELS 3 Zrotation Yrotation Xrotation

                    End Site
                    {
                        OFFSET 0 0 0
                    }
                }
            }
        }
    }

    JOINT right_hip
    {
        OFFSET 5.547305583953857 -4.575019836425781 3.5620148181915283
        CHANNELS 3 Zrotation Yrotation Xrotation

        JOINT right_knee
        {
            OFFSET 1.1084203720092773 -31.53653335571289 -26.790159225463867
            CHANNELS 3 Zrotation Yrotation Xrotation

            JOINT right_ankle
            {
                OFFSET -5.306102752685547 -31.07025909423828 26.73628044128418
                CHANNELS 3 Zrotation Yrotation Xrotation

                JOINT right_foot
                {
                    OFFSET 3.574263095855713 -6.979544639587402 -11.486910820007324
                    CHANNELS 3 Zrotation Yrotation Xrotation

                    End Site
                    {
                        OFFSET 0 0 0
                    }
                }
            }
        }
    }

    JOINT spine1
    {
        OFFSET 0.4744133949279785 17.56793212890625 1.269256830215454
        CHANNELS 3 Zrotation Yrotation Xrotation

        JOINT spine2
        {
            OFFSET 0.42104220390319824 5.537109375 -13.447051048278809
            CHANNELS 3 Zrotation Yrotation Xrotation

            JOINT spine3
            {
                OFFSET -0.10390305519104004 2.62225341796875 -3.692037582397461
                CHANNELS 3 Zrotation Yrotation Xrotation

                JOINT left_collar
                {
                    OFFSET -7.577725410461426 6.772911071777344 -7.819415092468262
                    CHANNELS 3 Zrotation Yrotation Xrotation

                    JOINT left_shoulder
                    {
                        OFFSET -12.497953414916992 -2.347503662109375 -0.7221851348876953
                        CHANNELS 3 Zrotation Yrotation Xrotation

                        JOINT left_elbow
                        {
                            OFFSET -0.7221431732177734 -17.521087646484375 18.52187728881836
                            CHANNELS 3 Zrotation Yrotation Xrotation

                            JOINT left_wrist
                            {
                                OFFSET -6.397699356079102 -26.071975708007812 7.725815296173096
                                CHANNELS 3 Zrotation Yrotation Xrotation

                                End Site
                                {
                                    OFFSET 0 0 0
                                }
                            }
                        }
                    }
                }

                JOINT right_collar
                {
                    OFFSET 8.140752792358398 7.027488708496094 -7.834973335266113
                    CHANNELS 3 Zrotation Yrotation Xrotation

                    JOINT right_shoulder
                    {
                        OFFSET 11.781332969665527 -0.9870376586914062 -0.6938762664794922
                        CHANNELS 3 Zrotation Yrotation Xrotation

                        JOINT right_elbow
                        {
                            OFFSET -0.8581695556640625 -16.327186584472656 20.467212677001953
                            CHANNELS 3 Zrotation Yrotation Xrotation

                            JOINT right_wrist
                            {
                                OFFSET -0.18008995056152344 -27.562278747558594 3.336151599884033
                                CHANNELS 3 Zrotation Yrotation Xrotation

                                End Site
                                {
                                    OFFSET 0 0 0
                                }
                            }
                        }
                    }
                }

                JOINT neck
                {
                    OFFSET 0.16351783275604248 16.04241943359375 -14.858990669250488
                    CHANNELS 3 Zrotation Yrotation Xrotation

                    JOINT head
                    {
                        OFFSET -1.150316596031189 11.211280822753906 -5.205087661743164
                        CHANNELS 3 Zrotation Yrotation Xrotation

                        End Site
                        {
                            OFFSET 0 0 0
                        }
                    }
                }
            }
        }
    }

}

MOTION
Frames: 14
Frame Time: 0.050000
0.000000 76.691643 0.000000 0.000000 0.000000 0.000000 0.000000 0.000000 0.000000 0.000000 0.000000 0.000000 0.000000 0.000000 0.000000 0.000000 0.000000 0.000000 0.000000 0.000000 0.000000 0.000000 0.000000 0.000000 0.000000 0.000000 0.000000 0.000000 0.000000 0.000000 0.000000 0.000000 0.000000 0.000000 0.000000 0.000000 0.000000 0.000000 0.000000 0.000000 0.000000 0.000000 0.000000 0.000000 0.000000 0.000000 0.000000 0.000000 0.000000 0.000000 0.000000 0.000000 0.000000 0.000000 0.000000 0.000000 0.000000 0.000000 0.000000 0.000000 0.000000 0.000000 0.000000 0.000000 0.000000 0.000000 0.000000 0.000000 0.000000
0.191962 73.647598 0.356109 0.000000 0.000000 -0.000000 -0.064596 0.130809 3.510283 0.365383 1.980123 -5.078749 -1.466103 -3.186203 2.264229 0.000000 0.000000 -0.000000 -0.282813 -0.825585 4.022636 4.205873 -0.745347 -7.099928 3.094140 -2.696523 3.803213 0.000000 0.000000 -0.000000 0.058925 -0.280368 0.197528 0.099156 -0.368241 -0.810628 0.000000 0.000000 -0.000000 -0.552327 -1.055302 0.395783 -2.234975 -1.751197 -0.162195 -3.451966 -1.236820 0.823132 0.000000 0.000000 -0.000000 0.240128 -1.568054 0.384657 9.361296 1.659675 0.039356 2.139683 -2.740806 0.812573 0.000000 0.000000 -0.000000 -0.116966 0.206568 -0.213495 0.000000 0.000000 -0.000000
0.231459 73.181366 -0.264021 0.000000 0.000000 -0.000000 -0.031784 0.194620 3.322985 0.898959 2.407811 -6.141907 -1.942099 -5.198934 1.621906 0.000000 0.000000 -0.000000 -0.617955 -1.606455 3.811803 6.330411 -0.726544 -8.336689 4.260025 -3.380739 3.056014 0.000000 0.000000 -0.000000 0.205242 -0.680989 3.306518 -0.076077 0.340868 -1.562514 0.000000 0.000000 -0.000000 -1.360540 -2.313126 1.027858 -9.181857 -5.689416 4.095116 -7.742550 -2.081632 2.653172 0.000000 0.000000 -0.000000 0.947250 -2.190720 1.186331 22.765680 6.657705 3.132356 5.686771 -6.748137 0.344206 0.000000 0.000000 -0.000000 0.052501 -0.311622 2.340788 0.000000 0.000000 -0.000000
0.163136 77.880898 -2.197440 0.000000 0.000000 -0.000000 -0.192383 -0.618736 -3.005333 2.615726 -0.042248 0.162032 -0.313531 -5.418583 -3.866417 0.000000 0.000000 -0.000000 -1.222704 -2.472813 -1.853346 7.003351 1.139309 -1.547818 3.179639 -2.827787 -3.644567 0.000000 0.000000 -0.000000 0.676839 -1.920667 8.992686 -0.629730 1.858501 -2.323371 0.000000 0.000000 -0.000000 -2.896558 -3.133462 2.538474 -19.713096 -11.481026 8.746230 -9.418786 2.750461 7.529571 0.000000 0.000000 -0.000000 3.342690 -1.195051 3.660123 34.906634 13.707074 6.248758 8.333748 -12.794088 0.280874 0.000000 0.000000 -0.000000 0.129487 -0.756756 6.068836 0.000000 0.000000 -0.000000
0.025860 86.076927 -5.469517 0.000000 0.000000 -0.000000 -1.293317 -2.985580 -13.837214 6.830551 -4.682815 14.779339 4.289890 -4.452268 -14.297447 0.000000 0.000000 -0.000000 -1.354789 -1.945802 -11.718525 4.266964 5.030478 13.097659 -0.373145 -1.866635 -15.819859 0.000000 0.000000 -0.000000 1.340518 -2.964371 17.324399 -1.038873 2.661774 -2.403276 0.000000 0.000000 -0.000000 -6.919892 -4.983474 6.600436 -32.159233 -19.513701 11.556572 -9.982926 15.458413 11.460334 0.000000 0.000000 -0.000000 7.574996 0.995978 8.028958 43.918583 21.917115 10.811515 9.216691 -20.774614 -1.727506 0.000000 0.000000 -0.000000 -0.415538 -0.404421 10.472148 0.000000 0.000000 -0.000000
-0.130204 95.884720 -9.048339 0.000000 0.000000 -0.000000 -3.941913 -6.343484 -29.312071 13.671096 -9.263077 40.106550 13.953208 0.064632 -32.672699 0.000000 0.000000 -0.000000 1.626172 2.729537 -25.265504 -5.650639 8.568068 34.017250 -10.343611 -8.985259 -35.711665 0.000000 0.000000 -0.000000 2.277149 -3.672067 29.730517 -1.511839 3.759801 -5.330450 0.000000 0.000000 -0.000000 -10.906059 -8.693913 10.317179 -38.359927 -26.686136 15.927101 -9.048307 26.164936 9.410581 0.000000 0.000000 -0.000000 11.557536 3.814887 12.123608 44.221294 26.740014 17.413188 12.021974 -21.557515 -2.839189 0.000000 0.000000 -0.000000 -1.493273 0.817335 12.022695 0.000000 0.000000 -0.000000
-0.364442 105.766808 -11.597349 0.000000 0.000000 -0.000000 -10.085311 -11.857030 -41.657560 19.406405 -9.732302 65.592314 27.575121 5.277075 -59.023459 0.000000 0.000000 -0.000000 7.959036 8.999107 -38.543888 -15.103760 8.490584 58.855423 -16.318564 -8.968796 -56.279960 0.000000 0.000000 -0.000000 3.304306 -4.572562 38.125702 -2.885540 4.980866 -2.682097 0.000000 0.000000 -0.000000 -17.126552 -10.304708 17.119896 -45.083485 -31.502974 17.455918 -4.706213 41.455027 3.055851 0.000000 0.000000 -0.000000 19.642619 5.725937 20.831110 49.660743 29.907921 18.217287 12.090229 -31.279640 -5.807048 0.000000 0.000000 -0.000000 -1.509477 0.314414 17.014267 0.000000 0.000000 -0.000000
-0.456028 110.383820 -12.590771 0.000000 0.000000 -0.000000 -15.192425 -16.251735 -44.542172 19.670768 -9.602365 73.078210 29.524628 5.292180 -66.147081 0.000000 0.000000 -0.000000 13.545605 13.755143 -42.997374 -16.754571 7.789235 69.118436 -17.757613 -10.512865 -63.670289 0.000000 0.000000 -0.000000 3.570930 -4.776647 40.070838 -3.164152 4.869199 -0.797178 0.000000 0.000000 -0.000000 -23.386572 -9.545735 24.595988 -52.879232 -35.222662 17.226375 2.616897 56.027540 -8.670013 0.000000 0.000000 -0.000000 26.434313 5.730251 28.329553 57.577336 33.306584 17.435507 11.441951 -44.192962 -9.762814 0.000000 0.000000 -0.000000 -0.902419 -0.503403 18.389694 0.000000 0.000000 -0.000000
-0.494175 112.616585 -12.993726 0.000000 0.000000 -0.000000 -20.106099 -21.052535 -43.925014 17.707789 -11.251154 74.372331 29.862955 8.046617 -69.355077 0.000000 0.000000 -0.000000 19.197805 18.802286 -44.066821 -16.387204 7.716289 73.241825 -18.789037 -12.960947 -68.652804 0.000000 0.000000 -0.000000 3.849127 -5.004230 41.821912 -3.077744 4.725629 -1.323611 0.000000 0.000000 -0.000000 -27.315721 -7.086419 29.657067 -57.394952 -39.546591 24.765825 10.185583 59.400919 -22.964040 0.000000 0.000000 -0.000000 31.423664 4.079306 33.933960 65.343861 38.954171 20.532905 11.284496 -51.615954 -16.275842 0.000000 0.000000 -0.000000 -0.313852 -1.200473 18.880543 0.000000 0.000000 -0.000000
-0.463422 112.483894 -13.116063 0.000000 0.000000 -0.000000 -24.542940 -26.081444 -41.714954 14.139151 -14.786680 73.906005 32.140107 12.733149 -74.920627 0.000000 0.000000 -0.000000 24.540030 23.895721 -43.766715 -14.363114 9.207849 74.858275 -22.034075 -16.831552 -75.798521 0.000000 0.000000 -0.000000 4.006821 -4.954535 44.143438 -2.752675 4.446574 -2.570493 0.000000 0.000000 -0.000000 -29.620783 -3.989339 32.838159 -55.702762 -42.852519 40.246592 10.259430 56.737616 -28.631207 0.000000 0.000000 -0.000000 35.765337 1.985610 38.817378 69.838858 45.943867 28.423269 13.477912 -54.796021 -21.454832 0.000000 0.000000 -0.000000 -0.205889 -1.352428 19.334233 0.000000 0.000000 -0.000000
-0.277178 108.927940 -13.130816 0.000000 0.000000 -0.000000 -27.470420 -29.980682 -39.327200 9.838206 -19.608886 72.730668 37.557721 17.255681 -83.611345 0.000000 0.000000 -0.000000 27.930691 27.614185 -42.514371 -10.343175 13.755162 73.562948 -27.613954 -23.236007 -83.113251 0.000000 0.000000 -0.000000 3.888609 -4.470250 46.711561 -2.041488 3.859515 -4.440804 0.000000 0.000000 -0.000000 -32.378537 -2.059365 36.351822 -48.962645 -42.199477 60.176489 -1.155631 57.313330 -20.459099 0.000000 0.000000 -0.000000 40.158358 0.891176 43.709922 67.276783 51.728348 42.961623 26.261553 -56.655713 -14.746102 0.000000 0.000000 -0.000000 -0.816776 -0.666136 19.195877 0.000000 0.000000 -0.000000
0.091270 103.191269 -12.942997 0.000000 0.000000 -0.000000 -28.777571 -32.875669 -36.022522 4.111177 -26.360408 69.587423 47.317144 22.611222 -95.598965 0.000000 0.000000 -0.000000 29.854013 30.427950 -40.447025 -5.032144 20.503131 69.170919 -35.997456 -32.576795 -90.489236 0.000000 0.000000 -0.000000 3.673691 -3.882437 49.328942 -1.554700 3.734342 -7.557046 0.000000 0.000000 -0.000000 -36.370749 -1.576314 41.150900 -43.809872 -37.731177 77.457311 -13.788652 58.792118 -9.410312 0.000000 0.000000 -0.000000 43.577451 0.421432 47.504665 56.457716 53.242640 65.897860 44.484648 -56.981671 0.297732 0.000000 0.000000 -0.000000 -1.495290 0.237601 17.627287 0.000000 0.000000 -0.000000
0.536716 95.634636 -12.609527 0.000000 0.000000 -0.000000 -26.662063 -33.195297 -30.646400 -4.833747 -35.071970 60.921914 60.184783 31.435413 -107.802870 0.000000 0.000000 -0.000000 28.548657 31.396867 -35.725924 5.373569 31.086022 57.795454 -44.621986 -45.965995 -95.253183 0.000000 0.000000 -0.000000 3.447023 -3.303721 52.177988 -1.184249 4.151062 -13.963841 0.000000 0.000000 -0.000000 -39.487624 -0.116507 45.013418 -39.076410 -31.714442 100.136029 -10.285235 56.433148 -16.668293 0.000000 0.000000 -0.000000 44.015647 -0.155907 47.997164 39.345770 48.220554 98.546817 53.802944 -55.489072 8.629299 0.000000 0.000000 -0.000000 -2.313705 1.766843 12.688728 0.000000 0.000000 -0.000000
0.975321 88.511902 -12.354551 0.000000 0.000000 -0.000000 -21.396354 -29.974692 -23.982780 -19.165173 -42.742078 46.084538 62.017567 39.698251 -108.775350 0.000000 0.000000 -0.000000 21.928617 27.955374 -27.152630 22.468358 39.196180 37.466539 -45.516744 -58.898821 -91.326791 0.000000 0.000000 -0.000000 2.831899 -2.425192 53.111534 0.509635 2.284636 -18.341239 0.000000 0.000000 -0.000000 -40.990040 3.101014 47.077989 -36.879728 -25.859644 114.746158 -4.984026 58.068307 -28.328318 0.000000 0.000000 -0.000000 43.772351 -0.825178 47.736413 32.414757 39.282917 116.200261 57.426919 -56.823780 12.108293 0.000000 0.000000 -0.000000 -2.550316 2.762355 7.681331 0.000000 0.000000 -0.000000
